<?xml version="1.0" encoding="UTF-8"?>
<svg version="1.1" xmlns="http://www.w3.org/2000/svg" width="200" height="200">
<path d="M0 0 C1.38530046 1.15441705 2.76048868 2.32108313 4.125 3.5 C4.85976562 4.09167969 5.59453125 4.68335937 6.3515625 5.29296875 C20.88663278 17.40552732 32.0145059 36.54277519 34.125 55.5 C34.99665503 68.53281795 35.37832551 81.99319759 31.125 94.5 C33.105 95.49 35.085 96.48 37.125 97.5 C37.125 99.15 37.125 100.8 37.125 102.5 C33.42958414 103.45024979 30.82041586 103.45024979 27.125 102.5 C26.980625 103.263125 26.83625 104.02625 26.6875 104.8125 C26.125 107.5 26.125 107.5 25.125 110.5 C26.23875 110.644375 27.3525 110.78875 28.5 110.9375 C32.125 111.5 32.125 111.5 34.125 112.5 C34.167721 114.16611905 34.16563832 115.83382885 34.125 117.5 C33.795 117.83 33.465 118.16 33.125 118.5 C30.93449979 118.40982004 28.746534 118.25333792 26.5625 118.0625 C25.36496094 117.96066406 24.16742188 117.85882813 22.93359375 117.75390625 C22.00675781 117.67011719 21.07992187 117.58632812 20.125 117.5 C18.145 120.47 16.165 123.44 14.125 126.5 C15.775 126.83 17.425 127.16 19.125 127.5 C20.74775573 128.14239456 22.35354807 128.82962672 23.9375 129.5625 C24.72769531 129.92472656 25.51789063 130.28695312 26.33203125 130.66015625 C26.92371094 130.93730469 27.51539063 131.21445313 28.125 131.5 C28.167721 133.16611905 28.16563832 134.83382885 28.125 136.5 C27.795 136.83 27.465 137.16 27.125 137.5 C21.6533213 137.15074391 17.40212282 135.47300744 12.45703125 133.14453125 C10.14866668 132.27463844 10.14866668 132.27463844 8 133.19921875 C6.12418327 134.50056661 4.81002495 135.78382815 3.3125 137.5 C-12.68400773 153.80217348 -37.00874471 162.42116797 -59.50024414 162.74145508 C-85.07548916 162.81916439 -108.44004697 155.54943533 -127.875 138.5 C-128.58914062 137.89414063 -129.30328125 137.28828125 -130.0390625 136.6640625 C-131.66099304 135.2876832 -133.2697856 133.89583861 -134.875 132.5 C-135.75542969 132.8609375 -136.63585937 133.221875 -137.54296875 133.59375 C-138.70441406 134.0578125 -139.86585938 134.521875 -141.0625 135 C-142.21105469 135.4640625 -143.35960937 135.928125 -144.54296875 136.40625 C-147.59490077 137.40805652 -149.70615072 137.73870804 -152.875 137.5 C-154 132.75 -154 132.75 -152.875 130.5 C-150.6953125 129.4296875 -150.6953125 129.4296875 -148 128.375 C-146.67355469 127.84519531 -146.67355469 127.84519531 -145.3203125 127.3046875 C-142.875 126.5 -142.875 126.5 -139.875 126.5 C-141.855 123.53 -143.835 120.56 -145.875 117.5 C-146.80183594 117.58378906 -147.72867188 117.66757813 -148.68359375 117.75390625 C-149.88113281 117.85574219 -151.07867187 117.95757812 -152.3125 118.0625 C-153.50746094 118.16691406 -154.70242187 118.27132812 -155.93359375 118.37890625 C-156.90425781 118.41886719 -157.87492188 118.45882812 -158.875 118.5 C-159.875 117.5 -159.875 117.5 -159.9375 114.9375 C-159.916875 114.133125 -159.89625 113.32875 -159.875 112.5 C-156.50402617 111.00178941 -154.67057881 110.5 -150.875 110.5 C-151.535 107.86 -152.195 105.22 -152.875 102.5 C-154.15375 102.685625 -155.4325 102.87125 -156.75 103.0625 C-160.625 103.625 -160.625 103.625 -162.875 102.5 C-162.875 100.85 -162.875 99.2 -162.875 97.5 C-160.895 96.51 -158.915 95.52 -156.875 94.5 C-157.0915625 93.7678125 -157.308125 93.035625 -157.53125 92.28125 C-161.90513889 75.27168208 -161.49742263 57.1338109 -155.875 40.5 C-155.42447266 39.10974609 -155.42447266 39.10974609 -154.96484375 37.69140625 C-147.02948249 15.67163756 -128.47737792 -0.89191469 -107.7734375 -10.65234375 C-73.67329076 -25.87812944 -30.07972214 -22.87312204 0 0 Z " fill="#A8948A" transform="translate(162.875,28.5)"/>
<path d="M0 0 C8.88395731 5.88279983 15.39698445 12.78037039 20.17578125 22.35546875 C20.17578125 23.01546875 20.17578125 23.67546875 20.17578125 24.35546875 C17.20578125 24.85046875 17.20578125 24.85046875 14.17578125 25.35546875 C14.17578125 26.67546875 14.17578125 27.99546875 14.17578125 29.35546875 C14.73288284 29.45347275 15.28998444 29.55147675 15.8639679 29.65245056 C21.65548271 30.67173916 27.44643171 31.69419622 33.23706055 32.71850586 C35.39902592 33.10050665 37.56113487 33.48169577 39.72338867 33.86206055 C42.82899351 34.40851591 45.93407251 34.95787571 49.0390625 35.5078125 C50.00789871 35.67764145 50.97673492 35.8474704 51.97492981 36.02244568 C52.87563705 36.18253616 53.7763443 36.34262665 54.7043457 36.50756836 C55.8934832 36.71741615 55.8934832 36.71741615 57.10664368 36.9315033 C59.17578125 37.35546875 59.17578125 37.35546875 62.17578125 38.35546875 C61.68999582 41.4783751 61.17718005 44.35127234 60.17578125 47.35546875 C61.28953125 47.49984375 62.40328125 47.64421875 63.55078125 47.79296875 C67.17578125 48.35546875 67.17578125 48.35546875 69.17578125 49.35546875 C69.21850225 51.0215878 69.21641957 52.6892976 69.17578125 54.35546875 C68.84578125 54.68546875 68.51578125 55.01546875 68.17578125 55.35546875 C65.98528104 55.26528879 63.79731525 55.10880667 61.61328125 54.91796875 C60.41574219 54.81613281 59.21820313 54.71429688 57.984375 54.609375 C57.05753906 54.52558594 56.13070312 54.44179687 55.17578125 54.35546875 C53.19578125 57.32546875 51.21578125 60.29546875 49.17578125 63.35546875 C50.82578125 63.68546875 52.47578125 64.01546875 54.17578125 64.35546875 C55.79853698 64.99786331 57.40432932 65.68509547 58.98828125 66.41796875 C59.77847656 66.78019531 60.56867188 67.14242187 61.3828125 67.515625 C62.27033203 67.93134766 62.27033203 67.93134766 63.17578125 68.35546875 C63.21850225 70.0215878 63.21641957 71.6892976 63.17578125 73.35546875 C62.84578125 73.68546875 62.51578125 74.01546875 62.17578125 74.35546875 C56.70410255 74.00621266 52.45290407 72.32847619 47.5078125 70 C45.19944793 69.13010719 45.19944793 69.13010719 43.05078125 70.0546875 C41.17496452 71.35603536 39.8608062 72.6392969 38.36328125 74.35546875 C22.36677352 90.65764223 -1.95796346 99.27663672 -24.44946289 99.59692383 C-50.02470791 99.67463314 -73.38926572 92.40490408 -92.82421875 75.35546875 C-93.53835937 74.74960938 -94.2525 74.14375 -94.98828125 73.51953125 C-96.61021179 72.14315195 -98.21900435 70.75130736 -99.82421875 69.35546875 C-100.70464844 69.71640625 -101.58507812 70.07734375 -102.4921875 70.44921875 C-104.23435547 71.1453125 -104.23435547 71.1453125 -106.01171875 71.85546875 C-107.73455078 72.5515625 -107.73455078 72.5515625 -109.4921875 73.26171875 C-112.54411952 74.26352527 -114.65536947 74.59417679 -117.82421875 74.35546875 C-118.94921875 69.60546875 -118.94921875 69.60546875 -117.82421875 67.35546875 C-115.64453125 66.28515625 -115.64453125 66.28515625 -112.94921875 65.23046875 C-112.06492187 64.87726563 -111.180625 64.5240625 -110.26953125 64.16015625 C-107.82421875 63.35546875 -107.82421875 63.35546875 -104.82421875 63.35546875 C-106.80421875 60.38546875 -108.78421875 57.41546875 -110.82421875 54.35546875 C-111.75105469 54.43925781 -112.67789063 54.52304688 -113.6328125 54.609375 C-114.83035156 54.71121094 -116.02789062 54.81304687 -117.26171875 54.91796875 C-119.05416016 55.07458984 -119.05416016 55.07458984 -120.8828125 55.234375 C-121.85347656 55.27433594 -122.82414062 55.31429687 -123.82421875 55.35546875 C-124.82421875 54.35546875 -124.82421875 54.35546875 -124.88671875 51.79296875 C-124.86609375 50.98859375 -124.84546875 50.18421875 -124.82421875 49.35546875 C-121.45324492 47.85725816 -119.61979756 47.35546875 -115.82421875 47.35546875 C-116.48421875 44.38546875 -117.14421875 41.41546875 -117.82421875 38.35546875 C-101.8746641 35.06633248 -85.86352741 32.17121214 -69.82421875 29.35546875 C-69.82421875 28.03546875 -69.82421875 26.71546875 -69.82421875 25.35546875 C-71.80421875 25.02546875 -73.78421875 24.69546875 -75.82421875 24.35546875 C-73.63884206 14.88550307 -65.57445488 6.80606278 -57.82421875 1.35546875 C-39.61245647 -8.84765504 -18.53425268 -10.792421 0 0 Z " fill="#C7AE9A" transform="translate(127.82421875,91.64453125)"/>
<path d="M0 0 C0.5045874 0.38639648 1.0091748 0.77279297 1.52905273 1.17089844 C1.52905273 2.49089844 1.52905273 3.81089844 1.52905273 5.17089844 C-2.40482265 6.84621517 -6.3436099 8.50965647 -10.28344727 10.17089844 C-11.40299805 10.64785156 -12.52254883 11.12480469 -13.67602539 11.61621094 C-15.28574219 12.29296875 -15.28574219 12.29296875 -16.92797852 12.98339844 C-17.91773682 13.40234375 -18.90749512 13.82128906 -19.92724609 14.25292969 C-22.47094727 15.17089844 -22.47094727 15.17089844 -25.47094727 15.17089844 C-21.86354437 18.89854809 -20.05014974 20.33033366 -14.84594727 20.48339844 C-5.14336446 20.30320761 0.61436153 14.67125607 7.59936523 8.51074219 C13.74080467 3.60577922 18.50119895 2.54493672 26.22827148 2.77246094 C35.5646205 3.89945218 42.06322994 9.97867706 48.86499023 15.96386719 C53.93106068 20.16083171 57.4081128 20.54516041 63.89233398 20.43261719 C67.10880909 20.11335225 69.08386113 19.2900645 71.52905273 17.17089844 C71.85905273 16.51089844 72.18905273 15.85089844 72.52905273 15.17089844 C71.80290771 15.04255615 71.0767627 14.91421387 70.32861328 14.78198242 C65.80152575 13.79381637 61.62943918 11.96263173 57.34155273 10.23339844 C56.42696289 9.87310547 55.51237305 9.5128125 54.57006836 9.14160156 C53.69672852 8.79162109 52.82338867 8.44164062 51.92358398 8.08105469 C50.73019409 7.60357788 50.73019409 7.60357788 49.51269531 7.11645508 C47.52905273 6.17089844 47.52905273 6.17089844 45.52905273 4.17089844 C45.71655273 2.10839844 45.71655273 2.10839844 46.52905273 0.17089844 C50.03675848 -0.99833681 50.61713911 -0.65861443 53.91430664 0.70629883 C54.80018463 1.0674025 55.68606262 1.42850616 56.5987854 1.80055237 C57.55803925 2.20249313 58.51729309 2.6044339 59.50561523 3.01855469 C60.50426605 3.42746445 61.50291687 3.83637421 62.53182983 4.25767517 C65.74299025 5.57399766 68.94874072 6.90290519 72.15405273 8.23339844 C76.33147031 9.95900707 80.51130405 11.67862194 84.69311523 13.39355469 C85.70569397 13.80964996 86.71827271 14.22574524 87.76153564 14.65444946 C94.65208236 17.46468673 101.58787082 20.07193977 108.63735962 22.45558167 C113.44090099 24.08274669 113.44090099 24.08274669 114.52905273 25.17089844 C114.65405273 27.67089844 114.65405273 27.67089844 114.52905273 30.17089844 C114.19905273 30.50089844 113.86905273 30.83089844 113.52905273 31.17089844 C108.05737404 30.82164235 103.80617555 29.14390587 98.86108398 26.81542969 C96.55271941 25.94553688 96.55271941 25.94553688 94.40405273 26.87011719 C92.528236 28.17146504 91.21407769 29.45472659 89.71655273 31.17089844 C73.72004501 47.47307192 49.39530802 56.0920664 26.90380859 56.41235352 C1.32856357 56.49006283 -22.03599424 49.22033376 -41.47094727 32.17089844 C-42.18508789 31.56503906 -42.89922852 30.95917969 -43.63500977 30.33496094 C-45.25694031 28.95858163 -46.86573287 27.56673704 -48.47094727 26.17089844 C-49.35137695 26.53183594 -50.23180664 26.89277344 -51.13891602 27.26464844 C-52.30036133 27.72871094 -53.46180664 28.19277344 -54.65844727 28.67089844 C-55.80700195 29.13496094 -56.95555664 29.59902344 -58.13891602 30.07714844 C-61.19084803 31.07895496 -63.30209798 31.40960648 -66.47094727 31.17089844 C-67.59594727 26.42089844 -67.59594727 26.42089844 -66.47094727 24.17089844 C-64.46606445 23.26391602 -64.46606445 23.26391602 -61.76782227 22.31542969 C-60.74180908 21.94708008 -59.7157959 21.57873047 -58.65869141 21.19921875 C-57.52423584 20.79799805 -56.38978027 20.39677734 -55.22094727 19.98339844 C-46.58916812 16.88386709 -38.05119199 13.63218133 -29.58422852 10.10449219 C-28.33357101 9.58572258 -28.33357101 9.58572258 -27.05764771 9.05647278 C-23.71637407 7.66901736 -20.37611802 6.28028247 -17.04821777 4.86099243 C-14.7061897 3.8624349 -12.35708235 2.88252965 -10.00610352 1.90527344 C-9.30302567 1.59855209 -8.59994781 1.29183075 -7.87556458 0.97581482 C-3.02508616 -1.01503731 -3.02508616 -1.01503731 0 0 Z " fill="#A79389" transform="translate(76.470947265625,134.8291015625)"/>
<path d="M0 0 C0.5045874 0.38639648 1.0091748 0.77279297 1.52905273 1.17089844 C1.52905273 2.49089844 1.52905273 3.81089844 1.52905273 5.17089844 C-6.95292675 8.69217142 -15.4377646 12.20642654 -23.92749023 15.70898438 C-26.04146459 16.58114081 -28.15516976 17.45395086 -30.26831055 18.328125 C-32.37525965 19.19807423 -34.48472175 20.06139311 -36.59594727 20.92089844 C-37.69165039 21.36949219 -38.78735352 21.81808594 -39.91625977 22.28027344 C-42.47094727 23.17089844 -42.47094727 23.17089844 -45.47094727 23.17089844 C-45.80094727 24.16089844 -46.13094727 25.15089844 -46.47094727 26.17089844 C-48.58032227 27.04980469 -48.58032227 27.04980469 -51.22094727 27.73339844 C-54.02300289 28.49071077 -56.60529311 29.22762224 -59.28344727 30.35839844 C-61.79741439 31.29215766 -63.81040911 31.32292919 -66.47094727 31.17089844 C-67.59594727 26.42089844 -67.59594727 26.42089844 -66.47094727 24.17089844 C-64.46606445 23.26391602 -64.46606445 23.26391602 -61.76782227 22.31542969 C-60.74180908 21.94708008 -59.7157959 21.57873047 -58.65869141 21.19921875 C-57.52423584 20.79799805 -56.38978027 20.39677734 -55.22094727 19.98339844 C-46.58916812 16.88386709 -38.05119199 13.63218133 -29.58422852 10.10449219 C-28.33357101 9.58572258 -28.33357101 9.58572258 -27.05764771 9.05647278 C-23.71637407 7.66901736 -20.37611802 6.28028247 -17.04821777 4.86099243 C-14.7061897 3.8624349 -12.35708235 2.88252965 -10.00610352 1.90527344 C-9.30302567 1.59855209 -8.59994781 1.29183075 -7.87556458 0.97581482 C-3.02508616 -1.01503731 -3.02508616 -1.01503731 0 0 Z " fill="#87746E" transform="translate(76.470947265625,134.8291015625)"/>
<path d="M0 0 C6.1141558 1.96364202 12.08480696 4.16044639 18.03125 6.58203125 C19.74737958 7.27412884 21.46352597 7.96618477 23.1796875 8.65820312 C25.82762757 9.72969855 28.47507677 10.80238915 31.12207031 11.8762207 C40.9804551 15.87113985 50.83890711 19.76645412 60.9107666 23.19551086 C65.90425363 24.90425363 65.90425363 24.90425363 67 26 C67.125 28.5 67.125 28.5 67 31 C66.505 31.495 66.505 31.495 66 32 C60.34025822 31.57003653 55.68357081 29.88604966 50.48828125 27.68359375 C49.68554779 27.3511113 48.88281433 27.01862885 48.05575562 26.67607117 C45.47150816 25.60397368 42.89201669 24.52092396 40.3125 23.4375 C37.66603439 22.33543343 35.01853403 21.23587907 32.37098694 20.13641357 C30.63631729 19.41575237 28.90205013 18.69412157 27.16819763 17.97149658 C19.9191708 14.9530443 12.63603352 12.03039102 5.30786133 9.20874023 C0.21324601 7.21324601 0.21324601 7.21324601 -2 5 C-1.46428571 1.46428571 -1.46428571 1.46428571 0 0 Z " fill="#88746F" transform="translate(124,134)"/>
<path d="M0 0 C0.495 1.98 0.495 1.98 1 4 C-7.3400131 7.83054134 -16.03946989 9.97378915 -24.91552734 12.14697266 C-27.3926318 12.75432306 -29.86630152 13.37441176 -32.33984375 13.99609375 C-33.92168918 14.38877013 -35.50371428 14.78072363 -37.0859375 15.171875 C-37.82137787 15.3561908 -38.55681824 15.54050659 -39.31454468 15.73040771 C-42.68032323 16.54854217 -45.51010261 17 -49 17 C-49.33 17.99 -49.66 18.98 -50 20 C-52.31197155 20.19390729 -54.6246029 20.37996367 -56.9375 20.5625 C-58.86916016 20.71912109 -58.86916016 20.71912109 -60.83984375 20.87890625 C-61.88269531 20.91886719 -62.92554688 20.95882812 -64 21 C-65 20 -65 20 -65.0625 17.4375 C-65.041875 16.633125 -65.02125 15.82875 -65 15 C-61.62902617 13.50178941 -59.79557881 13 -56 13 C-55.67 12.01 -55.34 11.02 -55 10 C-55 10.66 -55 11.32 -55 12 C-44.96182987 9.52504534 -34.94629221 6.9660744 -24.9375 4.375 C-23.1898938 3.92338501 -23.1898938 3.92338501 -21.40698242 3.46264648 C-14.61538594 1.70592713 -14.61538594 1.70592713 -7.875 -0.234375 C-4.80292332 -1.05248238 -3.01547267 -0.9137796 0 0 Z " fill="#897570" transform="translate(68,126)"/>
<path d="M0 0 C6.14210453 0.36130027 11.69937972 2.00434638 17.578125 3.75 C24.32821441 5.70617462 31.17409197 7.31420696 38 8.98120117 C39.00546875 9.22845947 40.0109375 9.47571777 41.046875 9.73046875 C41.95276367 9.95114014 42.85865234 10.17181152 43.79199219 10.39916992 C46 11 46 11 48 12 C50.3329866 12.04022391 52.66706666 12.04320247 55 12 C55 12.66 55 13.32 55 14 C56.11375 14.144375 57.2275 14.28875 58.375 14.4375 C62 15 62 15 64 16 C64.042721 17.66611905 64.04063832 19.33382885 64 21 C63.505 21.495 63.505 21.495 63 22 C61.06640625 21.984375 61.06640625 21.984375 58.5625 21.75 C57.75941406 21.68296875 56.95632812 21.6159375 56.12890625 21.546875 C52.53866125 20.91936651 49.17949081 19.89241105 45.70141602 18.81591797 C41.23339264 17.4664255 36.70921499 16.34133044 32.1875 15.1875 C21.06659732 12.32165516 10.02621586 9.20886777 -1 6 C-1.042721 4.33388095 -1.04063832 2.66617115 -1 1 C-0.67 0.67 -0.34 0.34 0 0 Z " fill="#897670" transform="translate(133,125)"/>
<path d="M0 0 C3.86134614 0.04843983 6.16579789 0.80078068 9.25 3.25 C11.93121076 7.27181615 12.06344335 10.52236391 11.25 15.25 C9.53922026 18.3217718 7.44028693 20.65485654 4.25 22.25 C-1.61390959 22.92660495 -1.61390959 22.92660495 -4.5078125 21.203125 C-7.3850987 18.84013633 -9.5056644 17.02666886 -10.0234375 13.26171875 C-10.22157651 8.72738373 -10.28156961 6.90423952 -7.3125 3.25 C-6.466875 2.59 -5.62125 1.93 -4.75 1.25 C-3.75 0.25 -3.75 0.25 0 0 Z " fill="#484756" transform="translate(147.75,68.75)"/>
<path d="M0 0 C0.495 2.475 0.495 2.475 1 5 C-3.93213931 6.81162504 -8.79142504 7.78637744 -13.94921875 8.65625 C-15.2291143 8.87794861 -15.2291143 8.87794861 -16.53486633 9.10412598 C-19.25167933 9.57378701 -21.96953291 10.03706945 -24.6875 10.5 C-27.38168506 10.96340659 -30.07564395 11.42810903 -32.76956177 11.89306641 C-34.50016518 12.19108237 -36.2310176 12.48765628 -37.96212769 12.78271484 C-43.36182436 13.70484883 -48.74413949 14.69135926 -54.11254883 15.78320312 C-56 16 -56 16 -58 15 C-58 13.35 -58 11.7 -58 10 C-53.35222144 7.82594429 -49.59575244 6.60620216 -44.4375 6.125 C-35.32136613 5.17258507 -26.31238666 3.59302267 -17.28683472 2.02252197 C-15.35452916 1.68634258 -13.42141561 1.3548178 -11.48828125 1.0234375 C-10.35946533 0.82669434 -9.23064941 0.62995117 -8.06762695 0.42724609 C-5.32384481 0.04510373 -2.76404441 -0.08441306 0 0 Z " fill="#897570" transform="translate(58,116)"/>
<path d="M0 0 C5.53846154 3.07692308 5.53846154 3.07692308 7 6 C7.67272652 10.25040849 8.08591677 14.28173536 5.71875 18.02734375 C3.30210793 20.3616003 1.30472608 21.82521594 -2.0703125 22.27734375 C-6.723145 21.93236187 -9.66878391 20.33121609 -13 17 C-14.87196713 13.25606575 -14.48511863 8.63176265 -13.3125 4.6875 C-9.72249325 0.07177703 -5.62361307 -0.69061915 0 0 Z " fill="#474755" transform="translate(55,69)"/>
<path d="M0 0 C8.75963111 0.12448755 17.2647394 1.65878644 25.8125 3.4375 C34.57031961 5.20413654 43.22857279 6.68483576 52.12109375 7.54296875 C55 8 55 8 58 10 C58.1875 12.625 58.1875 12.625 58 15 C54.33491891 15.92291213 51.71159905 15.97900505 48.02734375 15.1796875 C47.05788818 14.97625732 46.08843262 14.77282715 45.08959961 14.56323242 C44.04940674 14.33611572 43.00921387 14.10899902 41.9375 13.875 C39.70889779 13.40745758 37.47970436 12.94272648 35.25 12.48046875 C34.07824219 12.23731934 32.90648437 11.99416992 31.69921875 11.74365234 C25.29674437 10.45656569 18.86851196 9.32177701 12.4375 8.1875 C10.58209595 7.85951416 10.58209595 7.85951416 8.68920898 7.52490234 C5.79318404 7.01440684 2.89682033 6.5059593 0 6 C-0.38218767 4.34385343 -0.71395102 2.67542976 -1 1 C-0.67 0.67 -0.34 0.34 0 0 Z " fill="#897570" transform="translate(142,116)"/>
<path d="M0 0 C-0.04125 0.94875 -0.0825 1.8975 -0.125 2.875 C-0.34973818 6.10244856 -0.34973818 6.10244856 2 8 C-1.72080753 9.54187975 -5.45276087 11.0547139 -9.1875 12.5625 C-10.24259766 13.00013672 -11.29769531 13.43777344 -12.38476562 13.88867188 C-13.40634766 14.29794922 -14.42792969 14.70722656 -15.48046875 15.12890625 C-16.41785889 15.51119385 -17.35524902 15.89348145 -18.32104492 16.28735352 C-21.35537668 17.09453609 -23.03396566 16.97547478 -26 16 C-28.375 13.75 -28.375 13.75 -30 11 C-29.6015625 8.328125 -29.6015625 8.328125 -29 6 C-25.19377877 4.97571556 -21.38521505 3.96072315 -17.57421875 2.9543457 C-15.63931006 2.44129439 -13.70636167 1.92086869 -11.7734375 1.40039062 C-10.56171875 1.08134766 -9.35 0.76230469 -8.1015625 0.43359375 C-6.98088379 0.13509521 -5.86020508 -0.16340332 -4.70556641 -0.47094727 C-2 -1 -2 -1 0 0 Z " fill="#A69389" transform="translate(48,137)"/>
<path d="M0 0 C7.00509246 0.56759211 13.3410589 2.04653541 20.0625 4.0625 C21.02349609 4.34416016 21.98449219 4.62582031 22.97460938 4.91601562 C25.31846429 5.60401284 27.66007993 6.2987601 30 7 C28.52069807 10.96479572 26.76352943 13.77588233 24 17 C18.482845 16.3661521 13.73252191 14.49435691 8.625 12.4375 C7.79355469 12.10814453 6.96210938 11.77878906 6.10546875 11.43945312 C4.06821324 10.63157594 2.0338113 9.81650915 0 9 C0 6.03 0 3.06 0 0 Z " fill="#A79389" transform="translate(153,137)"/>
<path d="M0 0 C5.07253986 0.8330661 10.14453938 1.6693231 15.21606445 2.50854492 C16.94150539 2.79360366 18.66709085 3.07778907 20.39282227 3.36108398 C22.87294386 3.76837459 25.35252921 4.17880045 27.83203125 4.58984375 C28.60400345 4.71592514 29.37597565 4.84200653 30.17134094 4.97190857 C33.21192112 5.47851256 36.07019894 6.02339965 39 7 C38.25 12.75 38.25 12.75 36 15 C31.37428031 15.40282029 27.50131576 14.50308588 23.0625 13.25 C21.75006405 12.88518617 20.43756191 12.5206104 19.125 12.15625 C18.45210937 11.96675781 17.77921875 11.77726563 17.0859375 11.58203125 C13.58676736 10.60567104 10.07412417 9.68035457 6.5625 8.75 C3.28125 7.875 3.28125 7.875 0 7 C0 4.69 0 2.38 0 0 Z " fill="#A69389" transform="translate(151,123)"/>
<path d="M0 0 C1.2365332 -0.01836914 1.2365332 -0.01836914 2.49804688 -0.03710938 C3.68817383 -0.04000977 3.68817383 -0.04000977 4.90234375 -0.04296875 C5.62800537 -0.04707764 6.35366699 -0.05118652 7.10131836 -0.05541992 C9.0625 0.1875 9.0625 0.1875 12.0625 2.1875 C11.67981407 8.31047484 7.2341037 13.0158963 3.0625 17.1875 C0.3125 17.75 0.3125 17.75 -2.9375 17.1875 C-5.33363183 15.13202306 -7.11856809 12.75540387 -8.9375 10.1875 C-9.576875 9.300625 -10.21625 8.41375 -10.875 7.5 C-11.9375 5.1875 -11.9375 5.1875 -11.75 2.9375 C-9.77531626 -1.31566498 -4.00594781 0.00311747 0 0 Z " fill="#484856" transform="translate(99.9375,96.8125)"/>
<path d="M0 0 C0 1.98 0 3.96 0 6 C-0.69037354 6.17128418 -1.38074707 6.34256836 -2.09204102 6.51904297 C-5.24917592 7.30309877 -8.40584018 8.08903374 -11.5625 8.875 C-12.64853516 9.14441406 -13.73457031 9.41382813 -14.85351562 9.69140625 C-21.49962191 11.34300638 -21.49962191 11.34300638 -28.09375 13.1875 C-30.88569869 13.96804479 -33.11975452 14.17456033 -36 14 C-36 13.34 -36 12.68 -36 12 C-36.66 12 -37.32 12 -38 12 C-38.33 10.02 -38.66 8.04 -39 6 C-29.13907716 3.99110465 -19.27419904 2.0000294 -9.375 0.1875 C-8.65965088 0.05174561 -7.94430176 -0.08400879 -7.20727539 -0.22387695 C-2.232691 -1.1163455 -2.232691 -1.1163455 0 0 Z " fill="#A79389" transform="translate(49,124)"/>
<path d="M0 0 C0 3 0 3 -2.625 5.91796875 C-3.74249406 7.01550756 -4.86785643 8.10507895 -6 9.1875 C-6.57234375 9.74630859 -7.1446875 10.30511719 -7.734375 10.88085938 C-9.14962788 12.26073093 -10.57397155 13.63126734 -12 15 C-12 11.11566834 -10.82920314 10.32394504 -8.25 7.5 C-7.55390625 6.7265625 -6.8578125 5.953125 -6.140625 5.15625 C-4.19891408 3.20036601 -2.25069252 1.58156772 0 0 Z " fill="#6D605A" transform="translate(33,32)"/>
</svg>
